<?xml version="1.0" standalone="no"?>
<!DOCTYPE svg PUBLIC "-//W3C//DTD SVG 20010904//EN"
 "http://www.w3.org/TR/2001/REC-SVG-20010904/DTD/svg10.dtd">
<svg version="1.0" xmlns="http://www.w3.org/2000/svg"
 width="720.000000pt" height="720.000000pt" viewBox="0 0 720.000000 720.000000"
 preserveAspectRatio="xMidYMid meet">

<g transform="translate(0.000000,720.000000) scale(0.100000,-0.100000)"
fill="#000000" stroke="none">
<path d="M3610 6854 c-14 -2 -52 -9 -85 -15 -154 -26 -392 -94 -490 -140 -39
-18 -120 -39 -155 -40 -19 0 -29 -3 -22 -6 6 -2 12 -9 12 -14 0 -13 -28 -11
-32 2 -4 13 -91 -15 -196 -62 -73 -34 -94 -37 -64 -9 12 11 25 20 30 20 5 0
16 8 26 19 16 18 15 18 -31 10 -70 -12 -257 -29 -262 -24 -2 3 2 11 9 20 10
13 9 15 -7 15 -30 0 -111 -28 -178 -62 -134 -67 -282 -194 -392 -334 -52 -67
-73 -86 -73 -68 0 4 14 29 30 56 38 61 38 65 -1 31 -56 -49 -89 -87 -115 -130
-14 -23 -36 -48 -49 -57 -13 -8 -30 -30 -39 -48 -15 -30 -15 -33 1 -42 23 -13
78 -34 123 -45 19 -5 60 -16 90 -25 150 -43 197 -48 270 -32 86 20 106 20 58
0 -20 -9 -38 -23 -41 -33 -2 -10 -10 -18 -18 -18 -8 0 -35 -4 -61 -8 -43 -7
-48 -5 -48 12 0 15 -14 22 -82 37 -283 61 -443 138 -576 273 -43 45 -142 194
-174 263 -31 67 -68 195 -68 236 0 17 -5 57 -12 88 l-11 58 -13 -31 c-7 -17
-18 -31 -24 -31 -5 0 -10 -8 -10 -18 0 -10 -14 -39 -30 -65 -17 -26 -41 -69
-54 -95 -30 -59 -100 -269 -115 -342 -37 -182 -43 -224 -48 -313 -7 -110 -20
-117 -43 -22 -7 30 -16 55 -20 55 -13 0 -20 -76 -14 -139 4 -34 4 -61 1 -61
-11 0 -80 41 -117 68 -104 79 -162 160 -235 325 -14 32 -29 55 -34 52 -5 -3
-13 0 -17 6 -9 14 -27 -29 -51 -119 -25 -96 -25 -433 1 -587 21 -128 80 -374
102 -425 9 -19 19 -44 23 -55 23 -56 97 -198 134 -257 115 -183 332 -360 508
-416 138 -43 185 -55 238 -61 l56 -6 6 -82 c4 -46 16 -108 29 -143 22 -60 40
-78 40 -41 0 11 5 23 10 26 6 4 24 33 40 66 17 32 34 59 39 59 9 0 16 -25 47
-177 9 -46 20 -83 24 -83 7 0 14 27 54 195 29 121 76 205 115 205 20 0 22 -8
27 -180 2 -74 6 -177 8 -227 2 -55 0 -93 -6 -93 -5 0 -6 -5 -3 -10 4 -6 10 -8
15 -5 4 3 10 -2 13 -9 3 -8 1 -17 -6 -20 -8 -3 -4 -11 11 -22 12 -9 22 -20 22
-25 0 -14 -54 -10 -93 6 -20 8 -59 17 -89 21 -50 6 -54 4 -74 -22 -40 -55 -54
-93 -54 -147 0 -58 37 -184 51 -170 4 4 9 35 11 68 l3 60 18 -33 c10 -18 16
-36 14 -40 -2 -4 -1 -33 2 -64 8 -65 4 -68 -80 -68 -195 0 -530 -99 -583 -172
-18 -25 -18 -33 -7 -150 12 -122 13 -123 50 -163 33 -35 41 -53 60 -137 29
-126 143 -357 220 -447 98 -113 220 -190 351 -222 34 -8 104 -12 182 -11 l127
2 31 -33 c17 -17 45 -51 62 -74 17 -24 37 -43 45 -43 7 0 13 -5 13 -10 0 -6
11 -23 25 -38 14 -15 25 -32 25 -39 0 -7 18 -25 40 -39 22 -15 40 -34 40 -43
0 -9 7 -29 15 -45 19 -36 19 -66 0 -66 -8 0 -15 5 -15 10 0 18 -20 11 -21 -7
0 -14 -2 -15 -6 -3 -3 8 -15 23 -25 35 -11 11 -27 32 -36 47 -15 26 -52 45
-52 27 0 -5 11 -26 23 -47 13 -20 43 -75 67 -122 96 -188 300 -424 495 -571
104 -78 226 -130 359 -154 108 -18 226 -6 429 47 115 29 162 37 170 29 6 -6 7
-14 3 -18 -4 -4 -11 -1 -16 7 -8 13 -12 11 -25 -8 -16 -21 -87 -70 -149 -102
-57 -29 -140 -116 -205 -215 -36 -55 -68 -106 -71 -113 -3 -8 -10 -12 -15 -10
-5 2 -25 -37 -44 -87 -37 -93 -95 -208 -130 -260 -12 -17 -21 -33 -21 -37 0
-5 23 -8 50 -8 39 0 52 4 56 18 4 9 26 57 51 107 36 74 43 83 38 51 -4 -21
-16 -55 -29 -75 -21 -35 -46 -87 -46 -96 0 -3 17 -5 39 -5 36 0 39 2 45 33 8
42 58 103 106 127 42 21 140 40 211 40 l46 0 7 41 c9 55 1 60 -20 15 -11 -23
-25 -36 -37 -36 -14 0 -17 4 -12 18 4 9 16 41 27 69 10 29 24 56 31 60 22 13
58 12 64 -3 4 -12 8 -12 19 3 12 16 15 16 25 3 8 -11 12 -12 16 -2 6 15 33 16
33 1 0 -8 4 -8 15 1 8 6 20 8 26 4 7 -4 33 -9 58 -11 56 -4 71 -9 71 -23 0
-14 -26 -13 -50 2 -25 16 -30 10 -65 -74 -34 -83 -61 -94 -52 -20 l7 47 -21
-25 c-11 -14 -27 -33 -34 -42 -19 -24 -36 -23 -42 2 -7 26 -15 25 -31 -1 -17
-26 -15 -28 39 -37 42 -7 44 -9 47 -45 2 -21 -4 -61 -12 -90 -8 -28 -14 -53
-12 -54 1 -2 337 -2 745 -1 l741 3 -44 65 c-66 97 -202 332 -237 410 -62 137
-87 175 -179 268 -44 45 -84 73 -135 97 -67 32 -74 38 -88 77 l-14 43 -51 -3
c-51 -4 -51 -4 -57 30 -3 18 -7 50 -8 72 l-2 39 185 77 c102 42 214 90 250
107 36 16 83 36 105 43 65 21 251 117 287 148 48 41 110 82 126 82 8 0 48 23
90 51 75 50 82 52 137 34 16 -5 26 2 45 31 16 24 37 41 55 46 18 5 42 24 60
49 16 22 44 51 60 64 17 12 55 55 85 94 l54 71 70 0 c120 1 234 32 380 105
242 121 322 194 414 380 50 100 58 125 40 125 -8 0 -25 -25 -37 -55 -13 -30
-34 -65 -47 -77 -13 -13 -24 -29 -24 -35 0 -15 -188 -213 -202 -213 -5 0 -24
-11 -42 -25 -53 -41 -243 -125 -315 -141 -76 -16 -182 -18 -261 -5 -101 17
-164 48 -238 116 -55 51 -73 63 -92 58 -20 -5 -22 -3 -16 25 9 37 -7 49 -38
28 -13 -8 -33 -12 -44 -9 -14 3 -22 -1 -26 -14 -5 -16 -30 -44 -84 -94 -9 -9
-26 -19 -38 -23 -11 -3 -27 -17 -34 -31 -7 -13 -26 -29 -41 -34 -16 -5 -34
-21 -40 -35 -7 -14 -17 -22 -25 -19 -8 3 -32 -13 -55 -36 -29 -31 -45 -40 -59
-36 -15 5 -22 0 -30 -20 -7 -18 -15 -25 -25 -21 -8 3 -21 -4 -29 -16 -8 -11
-19 -17 -24 -14 -6 3 -24 -5 -40 -19 -16 -14 -39 -25 -50 -25 -13 0 -28 -12
-39 -30 -18 -32 -28 -37 -39 -19 -10 17 -56 1 -90 -32 -20 -19 -36 -27 -47
-23 -10 3 -27 0 -40 -8 -12 -8 -45 -23 -74 -33 -32 -11 -53 -26 -56 -37 -4
-14 -11 -17 -30 -13 -17 5 -33 -1 -56 -20 -24 -21 -38 -26 -61 -21 -26 5 -32
1 -45 -24 -17 -33 -53 -49 -66 -29 -7 11 -10 9 -15 -8 -4 -13 -11 -23 -18 -24
-6 0 -30 -2 -52 -4 -29 -3 -46 0 -54 10 -21 25 -37 18 -32 -15 3 -19 0 -30 -8
-30 -7 0 -10 7 -7 15 4 8 2 17 -3 20 -6 4 -10 1 -10 -6 0 -7 -3 -9 -6 -6 -4 4
-20 -1 -36 -11 -24 -14 -32 -14 -49 -4 -17 11 -24 9 -50 -9 l-31 -22 -28 21
c-29 22 -54 13 -43 -14 3 -8 -1 -14 -11 -14 -9 0 -22 -12 -28 -26 -7 -15 -23
-27 -40 -31 -15 -3 -28 -8 -28 -12 0 -7 -48 -33 -103 -55 -46 -19 -267 -34
-267 -19 0 6 -15 14 -32 17 -39 8 -56 20 -85 62 -29 41 -80 55 -219 59 -122 4
-118 3 -189 74 -63 65 -55 86 41 106 38 8 96 24 129 36 52 19 85 23 243 26
145 2 196 0 245 -13 79 -20 176 -61 202 -84 34 -30 118 -37 89 -7 -4 4 -8 35
-10 70 -4 83 -15 108 -64 154 -23 21 -48 50 -56 65 -8 16 -20 28 -28 28 -7 0
-23 11 -36 25 -12 13 -26 22 -30 20 -4 -3 -13 2 -20 10 -16 19 -30 19 -30 0 0
-19 -17 -19 -28 0 -4 9 -19 17 -32 20 -13 2 -28 9 -34 15 -14 14 -26 12 -26
-5 0 -20 -20 -18 -50 5 -30 24 -40 25 -40 5 0 -17 -16 -20 -25 -5 -4 6 -15 8
-24 5 -10 -3 -29 4 -44 15 -14 11 -32 20 -40 20 -9 0 -18 6 -20 13 -4 9 -7 9
-14 -1 -7 -9 -13 -6 -24 14 -13 24 -12 28 5 38 10 6 40 28 67 49 32 24 59 37
79 37 19 0 81 -27 158 -67 179 -95 189 -99 267 -128 136 -51 205 -66 299 -66
70 0 101 4 136 20 100 45 194 193 150 237 -6 6 -2 15 12 24 69 48 131 123 171
210 20 42 43 127 52 195 9 66 34 153 46 160 11 8 12 65 0 65 -11 0 -28 84 -27
135 1 33 6 42 33 58 28 16 53 18 183 18 83 0 162 -4 176 -7 25 -6 24 -7 -15
-27 -23 -12 -41 -27 -41 -36 0 -8 -7 -22 -15 -31 -14 -15 -11 -17 34 -19 26
-1 100 10 162 24 63 14 170 33 238 41 l124 16 17 -23 c35 -46 51 -244 35 -444
-7 -84 -6 -92 16 -119 20 -25 26 -27 62 -22 26 4 49 16 64 34 25 29 68 151
108 305 41 159 121 294 257 436 142 148 273 217 433 228 46 3 104 1 135 -6 71
-15 203 -93 260 -153 25 -27 49 -48 52 -48 7 0 68 183 68 207 1 10 14 43 30
73 21 40 29 49 30 33 0 -13 4 -23 8 -23 15 0 105 274 167 508 14 52 14 187 0
424 -3 58 -1 77 8 75 9 -1 12 33 12 138 l0 139 40 16 c53 20 125 62 125 72 0
4 -8 8 -17 8 -12 0 -7 7 15 20 46 28 39 52 -18 67 -69 18 -186 62 -233 89 -48
26 -94 70 -84 80 3 4 -10 22 -31 40 -27 24 -34 36 -26 44 8 8 25 -2 63 -36 55
-49 89 -54 76 -12 -13 42 -97 192 -137 245 -90 119 -219 221 -362 287 -32 15
-81 42 -110 60 -28 18 -59 35 -68 39 -10 3 -18 11 -18 16 0 10 38 -3 95 -33
17 -9 41 -16 55 -15 24 0 23 2 -15 32 -59 48 -195 179 -207 200 -5 10 14 0 43
-22 28 -23 54 -40 56 -37 7 6 -46 77 -122 160 -36 41 -76 86 -88 99 -32 35
-124 101 -184 131 -28 14 -54 30 -58 35 -3 6 14 52 39 104 49 101 96 236 96
273 0 13 -1 24 -3 24 -2 0 -30 -26 -62 -58 -66 -63 -175 -123 -269 -147 -113
-29 -325 -43 -731 -49 -213 -3 -253 -6 -360 -30 -185 -40 -376 -96 -427 -126
-28 -16 -21 6 10 31 l27 22 -27 -5 c-16 -3 -28 -2 -28 2 0 4 21 11 46 15 25 3
43 9 40 13 -8 7 78 47 135 62 58 15 158 49 187 62 34 17 26 29 -10 14 -18 -7
-50 -16 -72 -19 -38 -6 -38 -6 -32 23 3 18 1 32 -7 37 -7 5 13 10 48 13 44 4
60 9 60 20 0 18 -99 89 -185 134 -124 64 -218 87 -375 91 -77 2 -151 2 -165
-1z m419 -105 c87 -24 232 -89 214 -96 -7 -2 -62 14 -122 36 -61 23 -117 41
-123 41 -7 0 -31 9 -53 19 -34 17 -36 19 -16 20 14 1 59 -8 100 -20z m-1117
-276 c-9 -4 -10 -8 -2 -18 9 -10 6 -16 -10 -25 -12 -6 -24 -10 -26 -7 -10 9
20 57 35 56 11 0 12 -2 3 -6z m1013 -103 c3 -6 -4 -10 -17 -10 -18 0 -20 2 -8
10 19 12 18 12 25 0z m-634 -47 c-40 -55 -61 -78 -61 -70 0 22 56 97 72 97 5
0 0 -12 -11 -27z m2428 -79 c28 -15 50 -28 48 -30 -2 -2 -37 0 -78 6 -41 5
-83 10 -93 10 -18 0 -18 1 -1 20 24 27 61 25 124 -6z m60 -60 c104 -45 85 -69
-32 -39 -32 8 -67 15 -77 15 -28 0 -122 21 -117 26 7 7 89 22 129 23 20 1 64
-11 97 -25z m-3599 -412 c91 -20 143 -52 84 -52 -19 0 -25 -4 -21 -14 9 -23
-20 -39 -59 -33 -49 8 -62 1 -56 -30 5 -26 5 -26 -44 -19 -141 22 -227 31
-294 30 -84 -2 -279 -22 -294 -31 -5 -3 -6 -1 -2 5 3 6 21 14 38 18 18 3 39
10 48 15 34 18 87 38 120 44 19 4 40 11 46 16 22 18 128 49 165 49 21 0 40 3
42 8 7 10 173 6 227 -6z m110 -86 c0 -3 -4 -8 -10 -11 -5 -3 -10 -1 -10 4 0 6
5 11 10 11 6 0 10 -2 10 -4z m2380 -46 c0 -5 -4 -10 -9 -10 -6 0 -13 5 -16 10
-3 6 1 10 9 10 9 0 16 -4 16 -10z m-3193 -26 c-3 -3 -12 -4 -19 -1 -8 3 -5 6
6 6 11 1 17 -2 13 -5z m763 -4 c0 -11 -21 -11 -65 0 -27 7 -25 8 18 9 26 0 47
-3 47 -9z m3010 -74 c0 -7 -73 -49 -115 -68 -22 -9 -53 -17 -70 -17 -29 0 -29
0 -11 14 11 8 28 15 38 15 10 0 18 4 18 9 0 5 14 12 31 16 17 4 42 13 57 21
26 13 52 18 52 10z m-1425 -741 c50 -14 117 -30 150 -35 64 -10 171 -58 251
-113 27 -18 102 -57 167 -87 129 -60 236 -142 207 -160 -12 -7 -10 -15 13 -46
15 -23 23 -42 18 -48 -5 -6 -8 -51 -7 -101 2 -71 8 -103 28 -152 36 -85 96
-168 165 -228 125 -108 169 -159 212 -245 39 -79 76 -213 65 -232 -6 -10 -477
-9 -670 1 -122 6 -145 10 -172 30 -39 27 -161 78 -210 87 -20 4 -45 16 -56 28
-10 12 -23 20 -28 18 -6 -1 -16 2 -22 7 -7 6 -48 19 -92 30 -43 10 -92 24
-107 30 -16 6 -37 11 -48 11 -23 0 -79 59 -72 77 3 7 10 13 16 13 6 0 18 6 26
14 18 16 121 36 161 31 45 -5 144 -34 185 -53 22 -11 90 -42 150 -70 209 -96
215 -82 34 86 -146 136 -176 159 -303 227 -77 42 -96 48 -145 48 -31 -1 -76
-6 -101 -13 -42 -11 -146 -57 -180 -79 -8 -5 -27 -12 -41 -15 -15 -3 -51 -24
-80 -46 -29 -22 -61 -40 -70 -40 -10 0 -48 -20 -85 -45 -36 -25 -73 -45 -81
-45 -8 0 -27 -8 -41 -19 -15 -10 -49 -26 -77 -36 -27 -11 -67 -29 -88 -42 -62
-39 -163 -66 -228 -61 l-56 4 -25 -75 c-27 -81 -31 -83 -90 -67 -16 5 -28 11
-28 15 0 4 -14 18 -31 30 l-32 24 7 -29 c4 -16 20 -48 36 -72 35 -50 36 -58
12 -71 -24 -13 -64 7 -131 68 l-55 49 -27 -21 -28 -20 -71 71 c-46 47 -79 72
-93 72 -25 0 -165 79 -186 104 -8 9 -19 16 -25 16 -13 0 -46 55 -46 76 0 8 -4
14 -8 14 -14 0 -12 51 2 95 19 54 72 108 133 134 11 6 24 15 28 20 3 6 41 27
83 46 42 20 109 56 148 80 40 25 75 45 80 45 9 0 31 20 92 85 167 177 161 172
232 180 36 4 73 12 83 17 10 5 46 16 80 23 130 29 153 37 189 60 21 14 44 25
52 25 8 0 17 4 20 9 3 4 24 11 46 15 28 4 46 15 62 36 18 24 29 30 60 30 54 0
95 23 150 83 47 51 47 51 82 39 30 -11 40 -11 65 3 17 8 36 15 43 15 7 0 45
15 83 34 85 42 105 43 220 11z m3032 -287 c-3 -8 -6 -5 -6 6 -1 11 2 17 5 13
3 -3 4 -12 1 -19z m-4262 -1785 c17 -23 53 -80 80 -129 28 -48 84 -126 125
-173 91 -104 110 -133 110 -165 0 -39 -33 -53 -133 -55 -49 -1 -100 -7 -115
-12 -61 -24 -138 -20 -228 11 -47 16 -91 33 -97 38 -7 5 -26 12 -43 15 -27 5
-33 2 -43 -19 -14 -32 -31 -22 -31 19 0 46 20 106 82 248 30 68 65 150 78 182
46 116 145 135 215 40z m-908 -235 c-2 -18 -4 -6 -4 27 0 33 2 48 4 33 2 -15
2 -42 0 -60z m6 -263 c5 -65 4 -74 -5 -45 -14 46 -22 160 -10 140 5 -8 12 -51
15 -95z m24 -117 c-3 -8 -6 -5 -6 6 -1 11 2 17 5 13 3 -3 4 -12 1 -19z m1003
-272 c105 -22 153 -37 145 -44 -4 -4 -50 -8 -103 -9 -57 -1 -116 -9 -141 -18
-49 -17 -89 -19 -111 -5 -17 10 -19 7 40 54 51 40 71 43 170 22z m-310 -316
c0 -5 -4 -10 -10 -10 -5 0 -10 5 -10 10 0 6 5 10 10 10 6 0 10 -4 10 -10z
m1100 -790 c-6 -10 -9 1 -9 35 1 48 1 49 9 15 5 -19 4 -41 0 -50z m-247 -356
c3 -4 -5 -28 -18 -55 -14 -27 -25 -55 -25 -63 0 -7 -9 -24 -20 -37 -17 -21
-21 -22 -29 -9 -9 12 -14 13 -31 3 -11 -7 -27 -13 -37 -13 -9 0 -25 -7 -35
-17 -34 -30 -22 20 17 71 38 49 57 59 48 26 -9 -32 3 -23 37 30 39 60 73 84
93 64z m87 -8 c0 -7 -8 -24 -17 -37 -10 -13 -27 -42 -38 -64 -10 -22 -23 -45
-28 -52 -10 -14 -37 -6 -37 12 0 16 49 114 68 138 18 20 52 23 52 3z"/>
<path d="M4765 6661 c-153 -38 -370 -124 -360 -142 3 -4 35 -1 72 6 181 34
362 40 548 19 68 -8 49 10 -36 36 l-64 19 80 -1 c52 0 100 -7 139 -19 32 -11
60 -18 62 -16 11 10 -37 49 -96 79 -60 30 -74 33 -170 35 -74 1 -126 -3 -175
-16z"/>
<path d="M4390 6570 c-13 -8 -13 -10 2 -10 9 0 20 5 23 10 8 13 -5 13 -25 0z"/>
<path d="M6090 3199 c-92 -18 -201 -77 -299 -163 -27 -22 -57 -48 -67 -57 -10
-8 -39 -38 -65 -66 -38 -42 -45 -57 -47 -96 -2 -28 4 -59 14 -79 23 -44 104
-148 117 -148 5 0 18 11 29 25 11 14 28 25 38 25 10 0 21 4 25 9 3 5 30 13 60
16 45 6 66 3 107 -14 62 -26 73 -26 97 -2 15 15 18 30 16 77 -2 33 -9 78 -16
102 -11 40 -10 44 11 64 17 16 42 23 94 28 82 8 113 -4 185 -70 54 -50 95 -54
107 -12 12 43 12 59 -2 118 -28 122 -135 219 -268 243 -67 12 -73 12 -136 0z"/>
<path d="M5641 2409 c-53 -10 -71 -24 -71 -55 0 -41 73 -72 98 -41 5 6 19 33
30 60 24 53 25 52 -57 36z"/>
<path d="M3720 1531 c0 -6 5 -13 10 -16 6 -3 10 1 10 9 0 9 -4 16 -10 16 -5 0
-10 -4 -10 -9z"/>
<path d="M3341 80 c-18 -4 -40 -14 -47 -22 -13 -12 -8 -14 33 -14 42 1 48 -2
51 -21 5 -35 38 -29 51 9 6 17 8 35 4 39 -14 12 -58 17 -92 9z"/>
<path d="M3089 63 c-22 -28 -40 -63 -32 -63 4 0 18 11 32 24 15 13 45 26 69
30 38 6 43 4 40 -11 -2 -12 -14 -19 -33 -21 -17 -2 -34 -8 -39 -13 -15 -14 41
-11 65 3 17 10 23 10 26 1 8 -22 22 -14 18 9 -9 47 -117 77 -146 41z"/>
<path d="M3318 3 c6 -2 18 -2 25 0 6 3 1 5 -13 5 -14 0 -19 -2 -12 -5z"/>
</g>
</svg>
