<?xml version="1.0" standalone="no"?>
<!DOCTYPE svg PUBLIC "-//W3C//DTD SVG 20010904//EN"
 "http://www.w3.org/TR/2001/REC-SVG-20010904/DTD/svg10.dtd">
<svg version="1.0" xmlns="http://www.w3.org/2000/svg"
 width="900.000000pt" height="900.000000pt" viewBox="0 0 900.000000 900.000000"
 preserveAspectRatio="xMidYMid meet">
<metadata>
Created by potrace 1.10, written by Peter Selinger 2001-2011
</metadata>
<g transform="translate(0.000000,900.000000) scale(0.100000,-0.100000)"
fill="#ffffff" stroke="none">
<path d="M4420 8539 c-102 -16 -230 -47 -385 -93 -27 -8 -95 -31 -150 -51 -55
-20 -142 -50 -194 -67 -52 -16 -106 -41 -120 -54 -14 -13 -35 -24 -46 -24 -18
1 -19 1 -2 11 22 13 22 29 0 29 -9 0 -51 -12 -92 -26 -71 -24 -93 -33 -179
-70 -18 -8 -39 -14 -47 -14 -23 0 -18 19 8 29 12 5 31 19 42 31 l20 23 -45 -7
c-44 -6 -162 -21 -267 -33 -49 -5 -53 -4 -53 16 0 15 -6 21 -22 21 -26 0 -105
-25 -158 -49 -37 -17 -182 -101 -190 -110 -3 -4 -23 -18 -46 -34 -41 -28 -203
-191 -305 -308 -59 -67 -84 -73 -56 -14 38 79 -29 31 -110 -80 -25 -33 -64
-78 -89 -101 -53 -50 -57 -80 -14 -112 16 -12 33 -22 37 -22 4 0 21 -7 36 -15
15 -8 49 -19 75 -24 67 -14 147 -38 171 -50 11 -6 34 -11 51 -11 18 0 45 -8
61 -17 28 -16 33 -16 97 0 75 19 122 22 122 7 0 -5 -9 -14 -20 -20 -11 -6 -20
-19 -20 -29 0 -17 16 -25 80 -37 190 -37 225 -46 276 -72 45 -23 59 -44 45
-70 -8 -14 -29 -18 -132 -20 -68 -1 -127 -6 -133 -12 -9 -9 51 -41 114 -58
l35 -10 -34 -1 c-18 -1 -63 5 -100 13 -201 44 -426 61 -593 45 -169 -15 -181
-10 -85 34 43 21 83 37 88 37 5 0 45 17 87 37 42 21 91 40 107 43 22 4 29 10
27 23 -2 12 4 17 18 17 17 0 21 5 18 27 -3 24 -9 28 -61 38 -31 6 -63 17 -69
23 -7 7 -25 12 -42 12 -16 0 -43 4 -60 10 -17 5 -69 21 -116 35 -240 73 -441
224 -575 428 -108 166 -159 302 -189 501 -14 95 -32 139 -43 107 -3 -7 -14
-21 -24 -29 -11 -9 -19 -22 -19 -30 0 -13 -28 -67 -72 -139 -85 -137 -217
-619 -234 -853 -9 -130 -22 -153 -44 -82 -7 20 -18 44 -25 52 -7 8 -15 22 -17
30 -10 30 -20 -90 -13 -154 8 -76 6 -78 -63 -40 -78 43 -138 91 -204 164 -61
66 -88 111 -163 273 -20 43 -43 81 -51 84 -23 8 -53 -31 -70 -90 -40 -139 -47
-543 -14 -758 29 -189 96 -465 137 -568 41 -103 134 -294 153 -316 10 -11 31
-42 46 -70 108 -195 390 -437 594 -510 110 -40 296 -85 346 -85 23 0 46 -5 50
-11 3 -6 8 -45 11 -87 6 -110 48 -252 74 -252 4 0 18 21 32 48 14 26 36 67 49
92 28 54 53 63 61 23 34 -187 58 -284 70 -280 12 4 34 76 47 152 22 135 89
301 133 329 58 38 70 -3 73 -239 3 -224 16 -358 43 -428 36 -92 18 -106 -77
-62 -32 15 -81 27 -126 31 -84 7 -91 3 -138 -84 -39 -73 -45 -145 -18 -234 12
-40 27 -77 32 -83 14 -15 28 15 28 62 0 47 9 58 34 40 13 -10 17 -32 19 -107
l2 -95 -130 -7 c-71 -4 -141 -12 -155 -18 -14 -7 -54 -15 -90 -20 -36 -5 -96
-18 -135 -30 -38 -12 -81 -24 -95 -27 -45 -10 -184 -79 -213 -105 -27 -25 -27
-27 -27 -149 0 -161 16 -220 69 -268 35 -33 41 -45 60 -131 27 -117 59 -205
124 -335 77 -156 131 -233 228 -327 98 -96 174 -143 301 -190 79 -28 94 -30
285 -36 l202 -7 31 -35 c17 -19 44 -54 61 -77 16 -24 34 -43 40 -43 15 0 87
-81 100 -113 7 -17 17 -26 25 -23 16 6 89 -136 102 -201 l9 -41 -43 16 c-30
11 -61 35 -95 74 -66 74 -86 76 -53 5 14 -28 28 -59 33 -68 5 -9 35 -65 67
-125 31 -60 65 -118 74 -129 9 -11 48 -60 86 -110 89 -118 119 -151 244 -271
151 -146 232 -208 345 -263 126 -62 196 -85 314 -105 123 -22 248 -10 471 45
222 54 210 51 210 36 0 -22 -82 -85 -210 -159 -61 -36 -146 -125 -216 -228
-82 -122 -98 -144 -105 -150 -10 -8 -37 -65 -59 -123 -25 -66 -145 -302 -172
-336 -10 -13 -18 -28 -18 -32 0 -5 32 -9 70 -9 68 0 70 1 70 25 0 14 5 25 11
25 7 0 9 -10 7 -25 -5 -23 -3 -25 36 -25 40 0 42 1 59 50 21 58 57 104 101
128 49 26 119 52 142 52 28 0 36 10 23 26 -12 14 -4 84 9 84 4 0 17 22 30 49
23 52 61 85 86 75 21 -8 20 -26 -3 -55 -10 -13 -31 -49 -46 -79 -15 -30 -34
-63 -43 -72 -14 -17 -10 -18 66 -18 l82 0 0 30 c0 35 -12 38 -32 8 -9 -14 -20
-19 -31 -15 -13 5 -14 12 -6 41 5 19 16 48 24 63 8 15 15 35 15 43 0 32 42 44
160 47 63 1 133 -3 155 -9 22 -6 56 -11 75 -12 24 -1 35 -6 35 -16 0 -16 -22
-17 -62 -5 -19 6 -25 2 -37 -26 -8 -19 -26 -60 -40 -91 -25 -59 -43 -70 -66
-43 -10 12 -10 21 0 45 19 46 7 46 -25 0 -31 -45 -69 -54 -80 -19 -6 19 -7 19
-31 -7 -14 -14 -23 -28 -21 -30 2 -2 25 -6 52 -9 27 -4 55 -11 62 -17 22 -18
16 -101 -12 -195 l-7 -23 921 0 c506 0 921 4 921 8 0 5 -22 40 -49 78 -84 117
-265 431 -305 526 -41 99 -89 178 -156 256 -81 94 -121 125 -225 177 -60 30
-83 47 -93 70 -35 82 -33 80 -95 77 -53 -4 -57 -2 -66 22 -6 14 -11 53 -13 87
-4 73 -15 64 162 135 63 26 167 69 230 96 63 28 165 70 225 94 155 63 369 172
418 215 58 50 137 99 161 99 10 0 42 17 70 38 109 82 152 97 195 70 22 -14 49
-5 58 19 15 43 45 72 79 79 25 5 45 19 72 52 20 26 61 69 90 97 28 27 76 82
105 120 l53 70 90 7 c225 18 284 37 516 161 252 134 332 197 387 305 12 23 26
42 31 42 6 0 10 12 9 28 l0 27 -22 -30 c-40 -55 -192 -206 -237 -236 -25 -16
-67 -45 -94 -64 -28 -19 -79 -47 -115 -61 -36 -15 -97 -40 -134 -56 -132 -56
-301 -72 -462 -44 -135 24 -236 75 -311 158 -26 29 -48 43 -73 47 -33 6 -36 9
-41 46 -4 31 -10 41 -26 43 -11 2 -27 -4 -34 -13 -7 -8 -25 -15 -40 -15 -20 0
-36 -12 -66 -50 -21 -27 -47 -52 -57 -55 -9 -4 -22 -15 -27 -26 -6 -10 -26
-25 -44 -33 -18 -8 -43 -28 -55 -45 -12 -17 -31 -31 -40 -31 -10 0 -31 -16
-45 -35 -18 -23 -35 -35 -52 -35 -13 0 -24 -5 -24 -11 0 -18 -74 -79 -97 -79
-13 0 -32 -12 -45 -30 -15 -20 -28 -28 -39 -25 -12 4 -22 -1 -29 -15 -6 -11
-20 -20 -31 -20 -11 0 -37 -11 -57 -25 -20 -14 -43 -25 -52 -25 -8 0 -29 -17
-47 -37 -29 -35 -33 -37 -53 -25 -16 10 -25 11 -33 3 -6 -6 -18 -11 -26 -11
-9 0 -30 -14 -48 -30 -23 -22 -42 -30 -67 -30 -19 0 -37 -4 -40 -9 -4 -5 -38
-21 -76 -36 -48 -18 -77 -36 -91 -56 -19 -27 -23 -29 -38 -15 -14 13 -21 11
-66 -20 -40 -28 -56 -33 -82 -29 -18 3 -33 2 -33 -2 0 -22 -61 -73 -86 -73
-15 0 -33 -8 -40 -17 -11 -15 -17 -16 -43 -6 -27 10 -32 9 -41 -8 -13 -23 -37
-24 -61 -3 -20 18 -39 11 -39 -13 0 -12 -7 -14 -35 -9 -22 5 -44 2 -63 -8 -24
-12 -36 -13 -60 -4 -25 10 -35 8 -63 -9 l-33 -21 -39 20 -40 20 -23 -29 c-13
-15 -28 -39 -34 -53 -8 -18 -39 -39 -113 -74 -56 -26 -111 -53 -122 -58 -10
-6 -42 -12 -70 -13 -27 -1 -83 -6 -123 -10 -57 -6 -82 -4 -120 9 -89 33 -120
51 -143 85 -37 53 -91 71 -222 72 -138 1 -230 12 -235 28 -2 6 -21 20 -43 31
-21 11 -46 33 -55 48 -9 15 -25 39 -36 54 -18 27 -18 28 4 42 13 8 57 20 98
26 41 6 116 24 165 40 148 46 190 51 410 41 158 -7 214 -13 266 -30 90 -29
175 -67 197 -89 16 -16 84 -42 109 -42 12 0 9 99 -5 182 -10 57 -43 113 -71
123 -9 3 -29 24 -46 46 -58 79 -176 162 -198 140 -10 -10 -34 -5 -57 14 -23
19 -79 26 -99 13 -14 -9 -27 -6 -60 13 -39 22 -43 22 -52 6 -7 -12 -14 -14
-27 -7 -9 5 -33 12 -53 15 -21 3 -43 12 -49 20 -7 9 -30 18 -51 21 -21 4 -48
17 -61 31 l-23 25 28 21 c15 12 50 41 79 65 81 66 109 63 316 -44 92 -47 172
-90 177 -94 21 -16 180 -74 325 -117 77 -23 96 -25 203 -20 105 5 124 9 165
33 53 31 141 121 142 144 0 9 -5 21 -11 27 -14 14 -3 34 15 27 24 -9 29 17 9
45 l-20 26 40 25 c55 35 148 126 183 180 57 87 93 193 124 370 6 36 20 99 31
141 16 64 17 86 8 130 -20 102 -26 174 -16 196 19 42 79 54 266 54 228 -1 259
-9 187 -52 -33 -19 -58 -71 -42 -86 14 -15 120 -6 236 19 145 32 277 54 371
62 65 6 68 5 92 -23 47 -57 68 -285 48 -545 -12 -152 3 -186 80 -186 54 0 98
36 131 107 28 64 64 173 88 268 37 149 82 265 130 335 10 14 38 57 63 95 26
39 95 120 154 180 145 149 264 219 441 260 72 17 187 20 241 5 20 -5 47 -11
61 -14 40 -8 227 -124 263 -163 52 -57 71 -73 80 -70 11 3 77 203 77 232 0 53
64 155 95 152 13 -1 21 7 26 28 4 17 24 73 44 125 49 126 89 257 122 399 25
110 27 132 30 411 6 623 6 620 36 620 6 0 44 16 84 36 64 32 80 46 71 57 -2 2
12 22 31 46 42 53 35 71 -35 88 -106 24 -295 104 -345 145 -13 11 -62 74 -118
150 -27 36 -4 27 69 -27 40 -30 79 -55 85 -55 16 0 12 65 -6 105 -7 17 -40 75
-73 130 -130 218 -282 354 -531 476 -135 65 -195 99 -195 110 0 13 11 11 50
-10 19 -10 51 -21 72 -25 32 -6 36 -5 31 13 -3 10 -26 34 -51 52 -54 38 -182
158 -182 171 0 13 28 9 33 -4 3 -9 8 -10 15 -3 16 14 -15 62 -113 177 -144
168 -210 224 -355 300 -83 44 -88 55 -50 116 16 27 30 54 30 61 0 6 4 19 10
29 19 34 63 138 81 192 15 45 26 140 17 140 -2 0 -37 -33 -78 -73 -58 -56 -98
-83 -170 -119 -181 -88 -313 -104 -940 -118 -265 -6 -411 -13 -470 -24 -120
-21 -229 -43 -270 -54 -19 -5 -62 -15 -95 -22 -33 -8 -71 -19 -85 -25 -39 -19
-206 -75 -223 -75 -8 0 -17 7 -21 15 -3 8 -12 15 -21 15 -8 0 -15 5 -15 10 0
6 13 10 29 10 16 0 31 3 33 8 3 6 68 39 201 100 26 12 54 22 62 22 23 0 140
42 143 51 2 5 21 12 43 15 21 4 39 11 39 16 0 9 -11 7 -83 -14 -47 -14 -63 -2
-50 38 9 28 54 52 99 53 32 1 50 27 33 47 -11 14 -72 57 -147 106 -100 65
-237 117 -377 143 -109 20 -320 18 -465 -6z m610 -117 c63 -14 161 -50 200
-73 8 -5 28 -14 43 -20 19 -8 25 -15 19 -21 -7 -7 -21 -5 -43 6 -18 9 -36 16
-42 16 -5 0 -23 6 -40 14 -18 7 -45 19 -62 26 -16 7 -46 16 -65 21 -19 4 -60
17 -90 28 l-55 21 45 -4 c25 -3 65 -9 90 -14z m-1350 -295 c0 -13 -5 -28 -11
-34 -5 -5 -18 -25 -27 -44 -19 -38 -81 -84 -94 -71 -14 14 38 103 80 139 44
39 52 40 52 10z m195 -205 c-3 -4 -10 0 -15 8 -6 9 -5 17 3 22 13 8 24 -19 12
-30z m226 -39 c-16 -28 -38 -53 -45 -53 -13 0 -5 23 17 46 26 28 42 32 28 7z
m3025 -85 c24 -12 44 -29 45 -37 0 -9 23 -28 52 -42 35 -18 53 -33 55 -48 4
-24 3 -24 -108 -1 -93 19 -146 29 -183 35 -46 7 -41 20 13 29 46 7 54 31 15
46 -25 9 -31 21 -18 33 14 15 88 6 129 -15z m519 -568 c3 -5 -3 -10 -14 -10
-12 0 -21 5 -21 10 0 6 6 10 14 10 8 0 18 -4 21 -10z m-1905 -144 c34 -3 70
-14 137 -43 17 -7 40 -13 52 -13 12 0 21 -6 21 -13 0 -14 70 -47 100 -47 10 0
23 -7 28 -16 5 -9 19 -17 31 -18 39 -2 27 -21 -14 -22 -22 -1 -44 -3 -50 -4
-5 -1 -34 -2 -64 -1 l-54 1 5 45 c3 26 1 48 -5 52 -6 3 -38 5 -72 4 -45 -2
-65 2 -74 13 -10 11 -18 13 -31 6 -43 -23 -120 2 -120 39 0 26 12 33 45 27 16
-4 46 -8 65 -10z m150 -148 c0 -5 -9 -8 -20 -8 -13 0 -20 7 -20 20 0 18 2 19
20 8 11 -7 20 -16 20 -20z m660 -27 c0 -13 -120 -88 -169 -106 -50 -17 -101
-20 -101 -5 0 6 10 14 23 19 12 5 45 19 72 32 28 12 77 32 110 45 33 12 61 22
63 23 1 1 2 -3 2 -8z m-290 -125 c0 -8 -4 -18 -10 -21 -5 -3 -10 3 -10 14 0
12 5 21 10 21 6 0 10 -6 10 -14z m-1535 -792 c50 -15 124 -33 165 -41 138 -27
204 -52 315 -118 61 -36 184 -102 274 -147 184 -92 253 -145 257 -196 1 -17
11 -46 22 -64 17 -28 19 -46 16 -127 -11 -230 66 -383 293 -583 172 -152 244
-271 283 -472 9 -44 9 -61 0 -70 -14 -14 -821 -10 -934 6 -57 8 -91 18 -120
38 -47 31 -166 84 -215 95 -43 9 -123 45 -136 60 -14 17 -88 42 -165 56 -36 6
-75 18 -87 25 -12 8 -39 16 -59 19 -28 3 -48 16 -77 47 l-40 42 38 33 c43 37
105 49 208 40 93 -8 149 -23 224 -58 335 -157 403 -181 403 -146 0 8 -55 67
-122 130 -214 200 -253 230 -423 323 l-90 49 -100 -2 c-90 -1 -109 -4 -194
-37 -51 -21 -109 -48 -130 -61 -20 -13 -50 -26 -68 -30 -18 -3 -65 -29 -105
-56 -40 -27 -79 -49 -86 -49 -17 0 -95 -45 -151 -87 -24 -18 -50 -33 -56 -33
-14 0 -156 -63 -245 -109 -104 -54 -207 -83 -290 -83 l-77 0 -25 -66 c-15 -37
-29 -77 -33 -89 -4 -14 -14 -23 -26 -23 -26 0 -84 25 -116 50 -14 11 -30 20
-35 20 -14 0 3 -51 38 -108 35 -59 35 -79 -1 -88 -32 -8 -75 17 -132 76 -76
79 -86 84 -118 55 -14 -14 -32 -25 -39 -25 -14 0 -52 39 -84 87 -24 35 -102
82 -177 108 -28 9 -64 27 -82 41 -17 13 -38 24 -47 24 -8 0 -21 9 -29 20 -7
11 -32 33 -54 49 -28 21 -43 40 -48 63 -4 18 -14 46 -22 61 -13 25 -12 35 7
92 24 72 65 121 131 156 24 13 60 36 79 50 19 14 61 36 92 48 32 13 78 36 103
52 25 16 48 29 51 29 4 0 26 14 51 30 24 17 62 39 82 50 21 10 100 84 175 163
75 80 149 150 164 155 15 6 53 13 84 16 32 3 81 15 110 25 29 11 91 27 138 36
56 10 119 32 185 64 55 27 122 54 148 61 34 9 56 23 74 46 22 30 31 34 70 34
62 0 131 38 191 107 l51 57 46 -12 c41 -11 50 -10 85 8 22 11 47 20 57 20 10
0 61 20 113 45 52 24 102 44 110 44 8 0 56 -11 105 -25z m-1555 -2539 c37 -19
61 -52 145 -195 80 -135 105 -168 201 -272 72 -78 114 -146 114 -185 0 -12
-12 -31 -26 -42 -23 -18 -41 -21 -126 -21 -74 0 -114 -5 -161 -21 -98 -34
-183 -31 -292 9 -49 18 -108 42 -130 53 -52 25 -64 24 -75 -6 -11 -30 -35 -32
-50 -5 -13 25 9 122 53 230 102 252 159 385 178 412 38 53 112 72 169 43z
m284 -1184 c37 -11 75 -26 83 -34 13 -12 0 -15 -96 -21 -61 -4 -134 -14 -161
-22 -28 -8 -74 -14 -103 -12 -69 4 -68 23 3 78 l55 42 75 -6 c41 -3 106 -15
144 -25z m-444 -383 c0 -13 -23 -5 -28 10 -2 7 2 10 12 6 9 -3 16 -11 16 -16z
m1056 -1433 c3 -8 -5 -38 -19 -67 -14 -30 -29 -67 -33 -83 -4 -16 -17 -37 -28
-46 -18 -15 -23 -15 -36 -4 -14 12 -20 11 -45 -5 -17 -11 -39 -20 -50 -20 -12
0 -26 -5 -33 -12 -18 -18 -26 15 -11 44 28 52 63 87 79 78 20 -11 39 4 69 54
21 34 73 76 94 76 4 0 10 -7 13 -15z m-316 -291 c0 -15 -54 -96 -58 -86 -6 18
30 92 45 92 7 0 13 -3 13 -6z"/>
<path d="M6035 8333 c-66 -9 -197 -45 -315 -86 -210 -73 -245 -102 -112 -94
42 2 122 10 177 17 66 8 162 10 285 6 102 -3 191 -2 199 3 20 13 4 31 -27 31
-37 0 -60 15 -37 24 31 12 145 6 182 -9 19 -8 48 -15 64 -15 66 0 14 49 -107
100 -63 27 -79 29 -174 28 -58 0 -118 -3 -135 -5z"/>
<path d="M7555 3971 c-101 -30 -195 -85 -305 -177 -190 -160 -250 -232 -250
-304 0 -42 54 -140 113 -203 57 -61 72 -68 82 -37 6 20 75 57 145 79 53 16
121 15 155 -3 44 -23 63 -20 86 17 18 28 20 41 13 107 -4 41 -7 100 -8 130
l-1 55 75 28 c126 46 196 32 326 -65 54 -40 88 -48 98 -22 15 38 5 117 -21
172 -32 69 -130 169 -193 200 -92 44 -213 53 -315 23z"/>
<path d="M6993 2984 c-40 -20 -48 -40 -28 -70 30 -46 108 -44 126 4 6 15 13
39 16 55 5 26 4 27 -38 27 -24 0 -58 -8 -76 -16z"/>
<path d="M4640 1895 c0 -9 5 -15 11 -13 6 2 11 8 11 13 0 5 -5 11 -11 13 -6 2
-11 -4 -11 -13z"/>
<path d="M4152 83 c-51 -18 -48 -25 16 -33 40 -4 48 -9 50 -28 5 -34 43 -25
55 12 8 25 7 32 -13 48 -26 21 -50 22 -108 1z"/>
<path d="M3856 69 c-28 -22 -35 -49 -12 -49 8 0 16 7 20 15 3 9 18 15 38 15
18 0 40 4 48 10 11 7 9 11 -13 19 -40 15 -51 14 -81 -10z"/>
<path d="M3990 46 c0 -20 23 -46 40 -46 18 0 7 31 -17 48 -21 13 -23 13 -23
-2z"/>
<path d="M3910 10 c-11 -7 -4 -10 25 -10 29 0 36 3 25 10 -19 12 -31 12 -50 0z"/>
</g>
</svg>
